<svg width="176" height="56" viewBox="0 0 176 56" fill="none" xmlns="http://www.w3.org/2000/svg">
<path d="M59.5812 38.7235H58.2336V43.2032H57.1306V38.7235H55.8022V37.8143H59.5812V38.7235Z" fill="white"/>
<path d="M61.8447 43.2032C61.8159 43.1417 61.7824 43.0375 61.7536 42.8907C61.5618 43.1464 61.3076 43.2742 60.9815 43.2742C60.641 43.2742 60.3581 43.1606 60.1375 42.9428C59.9121 42.7202 59.8018 42.4313 59.8018 42.0809C59.8018 41.6595 59.936 41.3374 60.2094 41.1054C60.4827 40.8781 60.8712 40.7597 61.3795 40.755H61.7008V40.433C61.7008 40.253 61.6673 40.1252 61.6049 40.0541C61.5426 39.9784 61.4515 39.9452 61.3316 39.9452C61.0678 39.9452 60.9335 40.0967 60.9335 40.4045H59.8737C59.8737 40.0352 60.0128 39.7274 60.2957 39.4906C60.5787 39.2491 60.9335 39.1307 61.3603 39.1307C61.8063 39.1307 62.1468 39.2444 62.3914 39.4717C62.636 39.699 62.7559 40.0257 62.7559 40.4519V42.3366C62.7607 42.6823 62.8086 42.9522 62.9046 43.1464V43.208H61.8447V43.2032ZM61.8591 38.6666H60.9623L59.9264 37.5207H61.1158L61.8591 38.6666ZM61.2165 42.455C61.3364 42.455 61.4323 42.4313 61.5186 42.384C61.6001 42.3366 61.6625 42.2798 61.7008 42.2182V41.3848H61.4467C61.2644 41.3848 61.1253 41.4416 61.0198 41.5553C60.9143 41.6689 60.8664 41.8205 60.8664 42.0099C60.8664 42.3082 60.9815 42.455 61.2165 42.455Z" fill="white"/>
<path d="M63.9116 38.1647C63.9116 38.0037 63.9644 37.8711 64.0699 37.7669C64.1754 37.6627 64.3145 37.6106 64.4919 37.6106C64.6693 37.6106 64.8084 37.6627 64.9091 37.7669C65.0146 37.8711 65.0674 38.0037 65.0674 38.1647C65.0674 38.3257 65.0146 38.4583 64.9139 38.5625C64.8084 38.6666 64.6693 38.7234 64.4919 38.7234C64.3145 38.7234 64.1754 38.6714 64.0699 38.5625C63.9644 38.4535 63.9116 38.3257 63.9116 38.1647ZM65.0242 43.2032H63.9596V39.2017H65.0242V43.2032Z" fill="white"/>
<path d="M69.8438 42.4077C70.1507 42.4077 70.309 42.2088 70.3137 41.8158H71.3112C71.3065 42.2514 71.1674 42.6066 70.9036 42.8718C70.6351 43.1417 70.2898 43.2743 69.8726 43.2743C69.3498 43.2743 68.9518 43.1133 68.6784 42.7913C68.4051 42.4693 68.266 42.0004 68.2612 41.3754V41.0581C68.2612 40.4282 68.3955 39.95 68.664 39.6185C68.9374 39.287 69.3354 39.1213 69.8678 39.1213C70.3138 39.1213 70.6686 39.2586 70.9228 39.5285C71.1818 39.8032 71.3113 40.1868 71.316 40.6887H70.3185C70.3138 40.4661 70.2802 40.2909 70.2035 40.1725C70.1315 40.0494 70.0116 39.9926 69.8438 39.9926C69.6616 39.9926 69.5273 40.0589 69.4457 40.1868C69.3642 40.3146 69.3259 40.5656 69.3163 40.9397V41.347C69.3163 41.6737 69.3354 41.901 69.3642 42.0288C69.3978 42.1567 69.4506 42.2514 69.5273 42.313C69.604 42.3793 69.7095 42.4077 69.8438 42.4077Z" fill="white"/>
<path d="M73.3256 39.5522C73.5557 39.268 73.8387 39.126 74.1744 39.126C74.5437 39.126 74.8218 39.2539 75.0184 39.5096C75.2102 39.7653 75.3062 40.1489 75.311 40.6555V43.1985H74.2463V40.665C74.2463 40.433 74.208 40.2625 74.136 40.1583C74.0641 40.0541 73.9442 40.0021 73.7811 40.0021C73.5893 40.0021 73.4407 40.0873 73.3304 40.2625V43.1985H72.2705V37.5159H73.3304V39.5522H73.3256Z" fill="white"/>
<path d="M77.5935 43.2032H76.5337V39.2017H77.5935V43.2032ZM77.2866 37.5775H78.4759L77.4353 38.7235H76.5529L77.2866 37.5775Z" fill="white"/>
<path d="M79.8187 39.2017L79.8475 39.5995C80.0872 39.2869 80.399 39.1306 80.7874 39.1306C81.4828 39.1306 81.8424 39.6137 81.8616 40.575V43.2032H80.797V40.6507C80.797 40.4234 80.7634 40.2577 80.6915 40.1583C80.6243 40.0541 80.5045 40.0067 80.3318 40.0067C80.14 40.0067 79.9913 40.1062 79.881 40.3003V43.2079H78.8164V39.2064H79.8187V39.2017Z" fill="white"/>
<path d="M84.0436 39.5522C84.2738 39.268 84.5568 39.126 84.8877 39.126C85.2569 39.126 85.5399 39.2539 85.7317 39.5096C85.9235 39.7653 86.0194 40.1489 86.0242 40.6555V43.1985H84.9596V40.665C84.9596 40.433 84.9212 40.2625 84.8493 40.1583C84.7773 40.0541 84.6575 40.0021 84.4896 40.0021C84.2978 40.0021 84.1491 40.0873 84.0388 40.2625V43.1985H82.979V37.5159H84.0388V39.5522H84.0436Z" fill="white"/>
<path d="M92.6803 38.7235H91.3328V43.2032H90.225V38.7235H88.9014V37.8143H92.6803V38.7235Z" fill="white"/>
<path d="M93.6445 38.1646C93.6445 38.0036 93.6973 37.871 93.8028 37.7668C93.9083 37.6627 94.0474 37.6106 94.22 37.6106C94.3926 37.6106 94.5365 37.6627 94.642 37.7668C94.7475 37.871 94.8003 38.0036 94.8003 38.1646C94.8003 38.3256 94.7475 38.4582 94.642 38.5624C94.5365 38.6666 94.3974 38.7234 94.22 38.7234C94.0426 38.7234 93.9035 38.6713 93.798 38.5624C93.6973 38.4582 93.6445 38.3256 93.6445 38.1646ZM94.7571 43.2032H93.6925V39.2017H94.7571V43.2032Z" fill="white"/>
<path d="M97.6008 43.2742C97.0541 43.2742 96.6321 43.1133 96.3252 42.796C96.0183 42.474 95.8696 42.0146 95.8696 41.4179V41.1007C95.8696 40.4709 96.0087 39.9831 96.2916 39.6374C96.5698 39.2965 96.9726 39.1213 97.4953 39.1213C98.0037 39.1213 98.3873 39.2822 98.6463 39.6043C98.9053 39.9263 99.0347 40.3998 99.0395 41.0344V41.5458H96.9294C96.9438 41.8441 97.011 42.062 97.1261 42.1993C97.2412 42.3366 97.4234 42.4077 97.668 42.4077C98.0229 42.4077 98.3202 42.2893 98.5552 42.0478L98.9724 42.6823C98.8429 42.8575 98.6511 43.0043 98.4065 43.1133C98.1571 43.2222 97.8886 43.2742 97.6008 43.2742ZM98.6415 38.553V38.5956H97.8119L97.3419 38.0605L96.8719 38.5956H96.0614V38.5341L97.035 37.5159H97.644L98.6415 38.553ZM97.4426 43.5536C97.6248 43.5536 97.7735 43.601 97.8886 43.7004C98.0037 43.7999 98.0564 43.923 98.0564 44.0698C98.0564 44.2166 97.9989 44.3397 97.8886 44.4392C97.7735 44.5386 97.6248 44.586 97.4426 44.586C97.2651 44.586 97.1165 44.5386 97.0014 44.4392C96.8863 44.3397 96.8288 44.2214 96.8288 44.0698C96.8288 43.923 96.8863 43.7999 97.0014 43.7004C97.1165 43.601 97.2604 43.5536 97.4426 43.5536ZM96.9342 40.8213H97.9941V40.7266C97.9893 40.4898 97.9509 40.3051 97.8742 40.182C97.7975 40.0589 97.668 39.9973 97.4858 39.9973C97.2987 39.9973 97.1692 40.0636 97.0829 40.1962C96.9966 40.3288 96.9486 40.5324 96.9342 40.8213Z" fill="white"/>
<path d="M100.987 39.2017L101.015 39.5995C101.255 39.287 101.567 39.1307 101.955 39.1307C102.651 39.1307 103.01 39.6137 103.03 40.575V43.2032H101.965V40.6508C101.965 40.4235 101.931 40.2577 101.859 40.1583C101.792 40.0541 101.672 40.0068 101.5 40.0068C101.308 40.0068 101.159 40.1062 101.049 40.3004V43.2079H99.9844V39.2065H100.987V39.2017Z" fill="white"/>
<path d="M107.658 41.721L108.171 39.197H109.278L108.166 43.2032H107.154L106.037 39.197H107.144L107.658 41.721Z" fill="white"/>
<path d="M112.026 43.2032C111.998 43.1417 111.969 43.0375 111.935 42.8907C111.748 43.1464 111.489 43.2742 111.163 43.2742C110.823 43.2742 110.544 43.1606 110.319 42.9428C110.094 42.7202 109.983 42.4313 109.983 42.0809C109.983 41.6595 110.118 41.3374 110.391 41.1054C110.664 40.8781 111.053 40.7597 111.561 40.755H111.882V40.433C111.882 40.253 111.849 40.1252 111.787 40.0541C111.724 39.9784 111.633 39.9452 111.513 39.9452C111.249 39.9452 111.115 40.0967 111.115 40.4045H110.055C110.055 40.0352 110.194 39.7274 110.477 39.4906C110.76 39.2491 111.115 39.1307 111.542 39.1307C111.988 39.1307 112.328 39.2444 112.573 39.4717C112.818 39.699 112.937 40.0257 112.937 40.4519V42.3366C112.942 42.6823 112.99 42.9522 113.086 43.1464V43.208H112.026V43.2032ZM112.046 38.6666H111.149L110.113 37.5207H111.302L112.046 38.6666ZM111.403 42.455C111.518 42.455 111.619 42.4313 111.705 42.384C111.787 42.3366 111.849 42.2798 111.887 42.2182V41.3848H111.633C111.451 41.3848 111.312 41.4416 111.206 41.5553C111.101 41.6689 111.053 41.8205 111.053 42.0099C111.053 42.3082 111.168 42.455 111.403 42.455Z" fill="white"/>
<path d="M120.116 43.2032H119.013L117.402 39.6706V43.2032H116.304V37.8143H117.402L119.018 41.3516V37.8143H120.116V43.2032Z" fill="white"/>
<path d="M121.205 41.077C121.205 40.4188 121.325 39.931 121.565 39.609C121.805 39.287 122.14 39.126 122.572 39.126C122.941 39.126 123.224 39.2681 123.421 39.5569L123.464 39.2018H124.418V43.2032C124.418 43.7147 124.274 44.103 123.982 44.3729C123.689 44.6428 123.277 44.7802 122.735 44.7802C122.514 44.7802 122.279 44.7375 122.035 44.6475C121.79 44.5623 121.608 44.4486 121.488 44.3113L121.843 43.5868C121.944 43.691 122.073 43.7762 122.231 43.8425C122.39 43.9088 122.543 43.942 122.687 43.942C122.927 43.942 123.095 43.8851 123.2 43.7762C123.306 43.6626 123.358 43.4826 123.358 43.2316V42.886C123.157 43.1464 122.893 43.279 122.567 43.279C122.135 43.279 121.8 43.1133 121.565 42.7818C121.33 42.4503 121.21 41.9815 121.205 41.3754V41.077ZM122.265 41.3422C122.265 41.7116 122.313 41.9815 122.414 42.1519C122.509 42.3224 122.668 42.4029 122.879 42.4029C123.095 42.4029 123.258 42.3272 123.363 42.1709V40.2578C123.253 40.0873 123.095 40.0021 122.888 40.0021C122.677 40.0021 122.524 40.0873 122.418 40.2578C122.318 40.4282 122.27 40.7029 122.27 41.077V41.3422H122.265Z" fill="white"/>
<path d="M127.497 43.2032C127.468 43.1416 127.439 43.0374 127.406 42.8906C127.214 43.1464 126.96 43.2742 126.634 43.2742C126.293 43.2742 126.015 43.1606 125.79 42.9427C125.564 42.7202 125.454 42.4313 125.454 42.0809C125.454 41.6594 125.588 41.3374 125.862 41.1054C126.13 40.8781 126.524 40.7597 127.032 40.755H127.353V40.4329C127.353 40.253 127.32 40.1251 127.257 40.0541C127.195 39.9783 127.104 39.9452 126.984 39.9452C126.72 39.9452 126.586 40.0967 126.586 40.4045H125.526C125.526 40.0352 125.665 39.7273 125.948 39.4906C126.231 39.2491 126.586 39.1307 127.013 39.1307C127.454 39.1307 127.799 39.2443 128.044 39.4716C128.288 39.6989 128.408 40.0257 128.408 40.4519V42.3366C128.413 42.6823 128.461 42.9522 128.557 43.1464V43.2079H127.497V43.2032ZM126.874 42.455C126.989 42.455 127.089 42.4313 127.171 42.3839C127.252 42.3366 127.315 42.2798 127.353 42.2182V41.3848H127.099C126.922 41.3848 126.778 41.4416 126.672 41.5552C126.567 41.6689 126.519 41.8204 126.519 42.0098C126.524 42.3082 126.639 42.455 126.874 42.455Z" fill="white"/>
<path d="M130.811 41.4605L131.353 39.2017H132.484L131.151 43.8046C130.95 44.4818 130.576 44.8227 130.024 44.8227C129.895 44.8227 129.751 44.799 129.588 44.7517V43.9324L129.713 43.9372C129.876 43.9372 130 43.904 130.087 43.8425C130.168 43.7809 130.235 43.672 130.274 43.5157L130.355 43.2458L129.185 39.2017H130.326L130.811 41.4605Z" fill="white"/>
<path d="M136.935 42.4077C137.242 42.4077 137.4 42.2088 137.405 41.8158H138.402C138.398 42.2514 138.263 42.6066 137.995 42.8718C137.726 43.1417 137.381 43.2743 136.959 43.2743C136.436 43.2743 136.038 43.1133 135.765 42.7913C135.491 42.4693 135.348 42.0004 135.343 41.3754V41.0581C135.343 40.4282 135.477 39.95 135.75 39.6185C136.024 39.287 136.422 39.1213 136.954 39.1213C137.4 39.1213 137.755 39.2586 138.009 39.5285C138.268 39.8032 138.398 40.1868 138.402 40.6887H137.405C137.4 40.4661 137.367 40.2909 137.295 40.1725C137.223 40.0494 137.103 39.9926 136.935 39.9926C136.748 39.9926 136.618 40.0589 136.537 40.1868C136.455 40.3146 136.412 40.5656 136.407 40.9397V41.347C136.407 41.6737 136.422 41.901 136.455 42.0288C136.489 42.1567 136.542 42.2514 136.618 42.313C136.695 42.3793 136.801 42.4077 136.935 42.4077Z" fill="white"/>
<path d="M140.421 39.5522C140.651 39.268 140.934 39.126 141.27 39.126C141.639 39.126 141.922 39.2539 142.114 39.5096C142.306 39.7653 142.402 40.1489 142.407 40.6555V43.1985H141.342V40.665C141.342 40.433 141.304 40.2625 141.232 40.1583C141.16 40.0541 141.04 40.0021 140.877 40.0021C140.685 40.0021 140.536 40.0873 140.426 40.2625V43.1985H139.366V37.5159H140.426V39.5522H140.421Z" fill="white"/>
<path d="M143.418 41.0722C143.418 40.4661 143.562 39.9925 143.855 39.6469C144.143 39.3012 144.545 39.1307 145.059 39.1307C145.577 39.1307 145.979 39.3059 146.267 39.6469C146.555 39.9925 146.703 40.4708 146.703 41.0817V41.3374C146.703 41.9483 146.56 42.4218 146.272 42.7675C145.984 43.1085 145.581 43.2837 145.063 43.2837C144.545 43.2837 144.143 43.1132 143.85 42.7675C143.562 42.4218 143.418 41.9436 143.418 41.3327V41.0722ZM144.483 41.3327C144.483 42.0477 144.675 42.4076 145.063 42.4076C145.423 42.4076 145.615 42.1093 145.639 41.5126L145.644 41.0722C145.644 40.7076 145.591 40.4377 145.49 40.2625C145.389 40.0872 145.241 39.9973 145.054 39.9973C144.872 39.9973 144.732 40.0872 144.632 40.2625C144.531 40.4377 144.483 40.7076 144.483 41.0722V41.3327Z" fill="white"/>
<path d="M150.895 39.2017L150.923 39.5711C151.158 39.2775 151.475 39.126 151.863 39.126C152.266 39.126 152.554 39.3059 152.722 39.6658C152.957 39.3059 153.283 39.126 153.714 39.126C154.424 39.126 154.789 39.609 154.803 40.5797V43.2032H153.743V40.646C153.743 40.414 153.71 40.2483 153.647 40.1488C153.58 40.0494 153.475 40.002 153.316 40.002C153.12 40.002 152.971 40.1204 152.875 40.3619L152.885 40.4898V43.2032H151.825V40.6555C151.825 40.4282 151.791 40.2625 151.729 40.1583C151.667 40.0541 151.556 40.0068 151.398 40.0068C151.216 40.0068 151.072 40.1062 150.962 40.3004V43.208H149.902V39.2065H150.895V39.2017Z" fill="white"/>
<path d="M155.849 41.0722C155.849 40.4661 155.992 39.9925 156.285 39.6469C156.573 39.3012 156.976 39.1307 157.489 39.1307C158.007 39.1307 158.41 39.3059 158.697 39.6469C158.985 39.9925 159.134 40.4708 159.134 41.0817V41.3374C159.134 41.9483 158.99 42.4218 158.702 42.7675C158.414 43.1085 158.011 43.2837 157.494 43.2837C156.976 43.2837 156.568 43.1132 156.28 42.7675C155.992 42.4218 155.849 41.9436 155.849 41.3327V41.0722ZM157.484 43.5773C157.666 43.5773 157.815 43.6246 157.925 43.7241C158.04 43.8235 158.093 43.9467 158.093 44.0935C158.093 44.2403 158.035 44.3634 157.925 44.4628C157.81 44.5623 157.666 44.6096 157.484 44.6096C157.302 44.6096 157.158 44.5623 157.043 44.4628C156.928 44.3634 156.87 44.2403 156.87 44.0935C156.87 43.9467 156.928 43.8235 157.043 43.7241C157.153 43.6246 157.302 43.5773 157.484 43.5773ZM156.913 41.3327C156.913 42.0477 157.105 42.4076 157.494 42.4076C157.853 42.4076 158.045 42.1093 158.069 41.5126L158.074 41.0722C158.074 40.7076 158.021 40.4377 157.92 40.2625C157.82 40.0872 157.671 39.9973 157.489 39.9973C157.307 39.9973 157.167 40.0872 157.067 40.2625C156.966 40.4377 156.918 40.7076 156.918 41.0722V41.3327H156.913Z" fill="white"/>
<path d="M160.174 38.1647C160.174 38.0037 160.227 37.8711 160.333 37.7669C160.438 37.6627 160.577 37.6106 160.755 37.6106C160.932 37.6106 161.071 37.6627 161.177 37.7669C161.282 37.8711 161.335 38.0037 161.335 38.1647C161.335 38.3257 161.282 38.4583 161.181 38.5625C161.081 38.6666 160.937 38.7234 160.759 38.7234C160.582 38.7234 160.443 38.6714 160.337 38.5625C160.227 38.4583 160.174 38.3257 160.174 38.1647ZM161.287 43.2032H160.222V39.2017H161.287V43.2032Z" fill="white"/>
<path d="M165.613 39.2017L165.641 39.5995C165.881 39.287 166.193 39.1307 166.581 39.1307C167.277 39.1307 167.636 39.6137 167.656 40.575V43.2032H166.591V40.6508C166.591 40.4235 166.557 40.2577 166.485 40.1583C166.414 40.0541 166.298 40.0068 166.126 40.0068C165.934 40.0068 165.785 40.1062 165.675 40.3004V43.2079H164.61V39.2065H165.613V39.2017Z" fill="white"/>
<path d="M169.838 39.5522C170.068 39.268 170.351 39.126 170.687 39.126C171.056 39.126 171.339 39.2539 171.531 39.5096C171.722 39.7653 171.818 40.1489 171.823 40.6555V43.1985H170.758V40.665C170.758 40.433 170.72 40.2625 170.648 40.1583C170.576 40.0541 170.456 40.0021 170.288 40.0021C170.097 40.0021 169.948 40.0873 169.838 40.2625V43.1985H168.778V37.5159H169.838V39.5522Z" fill="white"/>
<path d="M174.887 43.2032C174.858 43.1417 174.825 43.0375 174.796 42.8907C174.609 43.1464 174.35 43.2742 174.024 43.2742C173.683 43.2742 173.405 43.1606 173.18 42.9428C172.955 42.7202 172.844 42.4313 172.844 42.0809C172.844 41.6595 172.979 41.3374 173.252 41.1054C173.52 40.8781 173.914 40.7597 174.422 40.755H174.743V40.433C174.743 40.253 174.71 40.1252 174.647 40.0541C174.585 39.9784 174.494 39.9452 174.374 39.9452C174.11 39.9452 173.976 40.0967 173.976 40.4045H172.921C172.921 40.0352 173.06 39.7274 173.343 39.4906C173.626 39.2491 173.981 39.1307 174.408 39.1307C174.854 39.1307 175.194 39.2444 175.439 39.4717C175.683 39.699 175.803 40.0257 175.803 40.4519V42.3366C175.808 42.6823 175.856 42.9522 175.952 43.1464V43.208H174.887V43.2032ZM174.906 38.6666H174.01L172.974 37.5207H174.163L174.906 38.6666ZM174.259 42.455C174.379 42.455 174.475 42.4313 174.561 42.384C174.643 42.3366 174.705 42.2798 174.743 42.2182V41.3848H174.489C174.312 41.3848 174.168 41.4416 174.062 41.5553C173.957 41.6689 173.909 41.8205 173.909 42.0099C173.909 42.3082 174.029 42.455 174.259 42.455Z" fill="white"/>
<path d="M59.5812 38.7235H58.2336V43.2032H57.1306V38.7235H55.8022V37.8143H59.5812V38.7235Z" fill="white"/>
<path d="M61.8447 43.2032C61.8159 43.1417 61.7824 43.0375 61.7536 42.8907C61.5618 43.1464 61.3076 43.2742 60.9815 43.2742C60.641 43.2742 60.3581 43.1606 60.1375 42.9428C59.9121 42.7202 59.8018 42.4313 59.8018 42.0809C59.8018 41.6595 59.936 41.3374 60.2094 41.1054C60.4827 40.8781 60.8712 40.7597 61.3795 40.755H61.7008V40.433C61.7008 40.253 61.6673 40.1252 61.6049 40.0541C61.5426 39.9784 61.4515 39.9452 61.3316 39.9452C61.0678 39.9452 60.9335 40.0967 60.9335 40.4045H59.8737C59.8737 40.0352 60.0128 39.7274 60.2957 39.4906C60.5787 39.2491 60.9335 39.1307 61.3603 39.1307C61.8063 39.1307 62.1468 39.2444 62.3914 39.4717C62.636 39.699 62.7559 40.0257 62.7559 40.4519V42.3366C62.7607 42.6823 62.8086 42.9522 62.9046 43.1464V43.208H61.8447V43.2032ZM61.8591 38.6666H60.9623L59.9264 37.5207H61.1158L61.8591 38.6666ZM61.2165 42.455C61.3364 42.455 61.4323 42.4313 61.5186 42.384C61.6001 42.3366 61.6625 42.2798 61.7008 42.2182V41.3848H61.4467C61.2644 41.3848 61.1253 41.4416 61.0198 41.5553C60.9143 41.6689 60.8664 41.8205 60.8664 42.0099C60.8664 42.3082 60.9815 42.455 61.2165 42.455Z" fill="white"/>
<path d="M63.9116 38.1647C63.9116 38.0037 63.9644 37.8711 64.0699 37.7669C64.1754 37.6627 64.3145 37.6106 64.4919 37.6106C64.6693 37.6106 64.8084 37.6627 64.9091 37.7669C65.0146 37.8711 65.0674 38.0037 65.0674 38.1647C65.0674 38.3257 65.0146 38.4583 64.9139 38.5625C64.8084 38.6666 64.6693 38.7234 64.4919 38.7234C64.3145 38.7234 64.1754 38.6714 64.0699 38.5625C63.9644 38.4535 63.9116 38.3257 63.9116 38.1647ZM65.0242 43.2032H63.9596V39.2017H65.0242V43.2032Z" fill="white"/>
<path d="M69.8438 42.4077C70.1507 42.4077 70.309 42.2088 70.3137 41.8158H71.3112C71.3065 42.2514 71.1674 42.6066 70.9036 42.8718C70.6351 43.1417 70.2898 43.2743 69.8726 43.2743C69.3498 43.2743 68.9518 43.1133 68.6784 42.7913C68.4051 42.4693 68.266 42.0004 68.2612 41.3754V41.0581C68.2612 40.4282 68.3955 39.95 68.664 39.6185C68.9374 39.287 69.3354 39.1213 69.8678 39.1213C70.3138 39.1213 70.6686 39.2586 70.9228 39.5285C71.1818 39.8032 71.3113 40.1868 71.316 40.6887H70.3185C70.3138 40.4661 70.2802 40.2909 70.2035 40.1725C70.1315 40.0494 70.0116 39.9926 69.8438 39.9926C69.6616 39.9926 69.5273 40.0589 69.4457 40.1868C69.3642 40.3146 69.3259 40.5656 69.3163 40.9397V41.347C69.3163 41.6737 69.3354 41.901 69.3642 42.0288C69.3978 42.1567 69.4506 42.2514 69.5273 42.313C69.604 42.3793 69.7095 42.4077 69.8438 42.4077Z" fill="white"/>
<path d="M73.3256 39.5522C73.5557 39.268 73.8387 39.126 74.1744 39.126C74.5437 39.126 74.8218 39.2539 75.0184 39.5096C75.2102 39.7653 75.3062 40.1489 75.311 40.6555V43.1985H74.2463V40.665C74.2463 40.433 74.208 40.2625 74.136 40.1583C74.0641 40.0541 73.9442 40.0021 73.7811 40.0021C73.5893 40.0021 73.4407 40.0873 73.3304 40.2625V43.1985H72.2705V37.5159H73.3304V39.5522H73.3256Z" fill="white"/>
<path d="M77.5935 43.2032H76.5337V39.2017H77.5935V43.2032ZM77.2866 37.5775H78.4759L77.4353 38.7235H76.5529L77.2866 37.5775Z" fill="white"/>
<path d="M79.8187 39.2017L79.8475 39.5995C80.0872 39.2869 80.399 39.1306 80.7874 39.1306C81.4828 39.1306 81.8424 39.6137 81.8616 40.575V43.2032H80.797V40.6507C80.797 40.4234 80.7634 40.2577 80.6915 40.1583C80.6243 40.0541 80.5045 40.0067 80.3318 40.0067C80.14 40.0067 79.9913 40.1062 79.881 40.3003V43.2079H78.8164V39.2064H79.8187V39.2017Z" fill="white"/>
<path d="M84.0436 39.5522C84.2738 39.268 84.5568 39.126 84.8877 39.126C85.2569 39.126 85.5399 39.2539 85.7317 39.5096C85.9235 39.7653 86.0194 40.1489 86.0242 40.6555V43.1985H84.9596V40.665C84.9596 40.433 84.9212 40.2625 84.8493 40.1583C84.7773 40.0541 84.6575 40.0021 84.4896 40.0021C84.2978 40.0021 84.1491 40.0873 84.0388 40.2625V43.1985H82.979V37.5159H84.0388V39.5522H84.0436Z" fill="white"/>
<path d="M92.6803 38.7235H91.3328V43.2032H90.225V38.7235H88.9014V37.8143H92.6803V38.7235Z" fill="white"/>
<path d="M93.6445 38.1646C93.6445 38.0036 93.6973 37.871 93.8028 37.7668C93.9083 37.6627 94.0474 37.6106 94.22 37.6106C94.3926 37.6106 94.5365 37.6627 94.642 37.7668C94.7475 37.871 94.8003 38.0036 94.8003 38.1646C94.8003 38.3256 94.7475 38.4582 94.642 38.5624C94.5365 38.6666 94.3974 38.7234 94.22 38.7234C94.0426 38.7234 93.9035 38.6713 93.798 38.5624C93.6973 38.4582 93.6445 38.3256 93.6445 38.1646ZM94.7571 43.2032H93.6925V39.2017H94.7571V43.2032Z" fill="white"/>
<path d="M97.6008 43.2742C97.0541 43.2742 96.6321 43.1133 96.3252 42.796C96.0183 42.474 95.8696 42.0146 95.8696 41.4179V41.1007C95.8696 40.4709 96.0087 39.9831 96.2916 39.6374C96.5698 39.2965 96.9726 39.1213 97.4953 39.1213C98.0037 39.1213 98.3873 39.2822 98.6463 39.6043C98.9053 39.9263 99.0347 40.3998 99.0395 41.0344V41.5458H96.9294C96.9438 41.8441 97.011 42.062 97.1261 42.1993C97.2412 42.3366 97.4234 42.4077 97.668 42.4077C98.0229 42.4077 98.3202 42.2893 98.5552 42.0478L98.9724 42.6823C98.8429 42.8575 98.6511 43.0043 98.4065 43.1133C98.1571 43.2222 97.8886 43.2742 97.6008 43.2742ZM98.6415 38.553V38.5956H97.8119L97.3419 38.0605L96.8719 38.5956H96.0614V38.5341L97.035 37.5159H97.644L98.6415 38.553ZM97.4426 43.5536C97.6248 43.5536 97.7735 43.601 97.8886 43.7004C98.0037 43.7999 98.0564 43.923 98.0564 44.0698C98.0564 44.2166 97.9989 44.3397 97.8886 44.4392C97.7735 44.5386 97.6248 44.586 97.4426 44.586C97.2651 44.586 97.1165 44.5386 97.0014 44.4392C96.8863 44.3397 96.8288 44.2214 96.8288 44.0698C96.8288 43.923 96.8863 43.7999 97.0014 43.7004C97.1165 43.601 97.2604 43.5536 97.4426 43.5536ZM96.9342 40.8213H97.9941V40.7266C97.9893 40.4898 97.9509 40.3051 97.8742 40.182C97.7975 40.0589 97.668 39.9973 97.4858 39.9973C97.2987 39.9973 97.1692 40.0636 97.0829 40.1962C96.9966 40.3288 96.9486 40.5324 96.9342 40.8213Z" fill="white"/>
<path d="M100.987 39.2017L101.015 39.5995C101.255 39.287 101.567 39.1307 101.955 39.1307C102.651 39.1307 103.01 39.6137 103.03 40.575V43.2032H101.965V40.6508C101.965 40.4235 101.931 40.2577 101.859 40.1583C101.792 40.0541 101.672 40.0068 101.5 40.0068C101.308 40.0068 101.159 40.1062 101.049 40.3004V43.2079H99.9844V39.2065H100.987V39.2017Z" fill="white"/>
<path d="M107.658 41.721L108.171 39.197H109.278L108.166 43.2032H107.154L106.037 39.197H107.144L107.658 41.721Z" fill="white"/>
<path d="M112.026 43.2032C111.998 43.1417 111.969 43.0375 111.935 42.8907C111.748 43.1464 111.489 43.2742 111.163 43.2742C110.823 43.2742 110.544 43.1606 110.319 42.9428C110.094 42.7202 109.983 42.4313 109.983 42.0809C109.983 41.6595 110.118 41.3374 110.391 41.1054C110.664 40.8781 111.053 40.7597 111.561 40.755H111.882V40.433C111.882 40.253 111.849 40.1252 111.787 40.0541C111.724 39.9784 111.633 39.9452 111.513 39.9452C111.249 39.9452 111.115 40.0967 111.115 40.4045H110.055C110.055 40.0352 110.194 39.7274 110.477 39.4906C110.76 39.2491 111.115 39.1307 111.542 39.1307C111.988 39.1307 112.328 39.2444 112.573 39.4717C112.818 39.699 112.937 40.0257 112.937 40.4519V42.3366C112.942 42.6823 112.99 42.9522 113.086 43.1464V43.208H112.026V43.2032ZM112.046 38.6666H111.149L110.113 37.5207H111.302L112.046 38.6666ZM111.403 42.455C111.518 42.455 111.619 42.4313 111.705 42.384C111.787 42.3366 111.849 42.2798 111.887 42.2182V41.3848H111.633C111.451 41.3848 111.312 41.4416 111.206 41.5553C111.101 41.6689 111.053 41.8205 111.053 42.0099C111.053 42.3082 111.168 42.455 111.403 42.455Z" fill="white"/>
<path d="M120.116 43.2032H119.013L117.402 39.6706V43.2032H116.304V37.8143H117.402L119.018 41.3516V37.8143H120.116V43.2032Z" fill="white"/>
<path d="M121.205 41.077C121.205 40.4188 121.325 39.931 121.565 39.609C121.805 39.287 122.14 39.126 122.572 39.126C122.941 39.126 123.224 39.2681 123.421 39.5569L123.464 39.2018H124.418V43.2032C124.418 43.7147 124.274 44.103 123.982 44.3729C123.689 44.6428 123.277 44.7802 122.735 44.7802C122.514 44.7802 122.279 44.7375 122.035 44.6475C121.79 44.5623 121.608 44.4486 121.488 44.3113L121.843 43.5868C121.944 43.691 122.073 43.7762 122.231 43.8425C122.39 43.9088 122.543 43.942 122.687 43.942C122.927 43.942 123.095 43.8851 123.2 43.7762C123.306 43.6626 123.358 43.4826 123.358 43.2316V42.886C123.157 43.1464 122.893 43.279 122.567 43.279C122.135 43.279 121.8 43.1133 121.565 42.7818C121.33 42.4503 121.21 41.9815 121.205 41.3754V41.077ZM122.265 41.3422C122.265 41.7116 122.313 41.9815 122.414 42.1519C122.509 42.3224 122.668 42.4029 122.879 42.4029C123.095 42.4029 123.258 42.3272 123.363 42.1709V40.2578C123.253 40.0873 123.095 40.0021 122.888 40.0021C122.677 40.0021 122.524 40.0873 122.418 40.2578C122.318 40.4282 122.27 40.7029 122.27 41.077V41.3422H122.265Z" fill="white"/>
<path d="M127.497 43.2032C127.468 43.1416 127.439 43.0374 127.406 42.8906C127.214 43.1464 126.96 43.2742 126.634 43.2742C126.293 43.2742 126.015 43.1606 125.79 42.9427C125.564 42.7202 125.454 42.4313 125.454 42.0809C125.454 41.6594 125.588 41.3374 125.862 41.1054C126.13 40.8781 126.524 40.7597 127.032 40.755H127.353V40.4329C127.353 40.253 127.32 40.1251 127.257 40.0541C127.195 39.9783 127.104 39.9452 126.984 39.9452C126.72 39.9452 126.586 40.0967 126.586 40.4045H125.526C125.526 40.0352 125.665 39.7273 125.948 39.4906C126.231 39.2491 126.586 39.1307 127.013 39.1307C127.454 39.1307 127.799 39.2443 128.044 39.4716C128.288 39.6989 128.408 40.0257 128.408 40.4519V42.3366C128.413 42.6823 128.461 42.9522 128.557 43.1464V43.2079H127.497V43.2032ZM126.874 42.455C126.989 42.455 127.089 42.4313 127.171 42.3839C127.252 42.3366 127.315 42.2798 127.353 42.2182V41.3848H127.099C126.922 41.3848 126.778 41.4416 126.672 41.5552C126.567 41.6689 126.519 41.8204 126.519 42.0098C126.524 42.3082 126.639 42.455 126.874 42.455Z" fill="white"/>
<path d="M130.811 41.4605L131.353 39.2017H132.484L131.151 43.8046C130.95 44.4818 130.576 44.8227 130.024 44.8227C129.895 44.8227 129.751 44.799 129.588 44.7517V43.9324L129.713 43.9372C129.876 43.9372 130 43.904 130.087 43.8425C130.168 43.7809 130.235 43.672 130.274 43.5157L130.355 43.2458L129.185 39.2017H130.326L130.811 41.4605Z" fill="white"/>
<path d="M136.935 42.4077C137.242 42.4077 137.4 42.2088 137.405 41.8158H138.402C138.398 42.2514 138.263 42.6066 137.995 42.8718C137.726 43.1417 137.381 43.2743 136.959 43.2743C136.436 43.2743 136.038 43.1133 135.765 42.7913C135.491 42.4693 135.348 42.0004 135.343 41.3754V41.0581C135.343 40.4282 135.477 39.95 135.75 39.6185C136.024 39.287 136.422 39.1213 136.954 39.1213C137.4 39.1213 137.755 39.2586 138.009 39.5285C138.268 39.8032 138.398 40.1868 138.402 40.6887H137.405C137.4 40.4661 137.367 40.2909 137.295 40.1725C137.223 40.0494 137.103 39.9926 136.935 39.9926C136.748 39.9926 136.618 40.0589 136.537 40.1868C136.455 40.3146 136.412 40.5656 136.407 40.9397V41.347C136.407 41.6737 136.422 41.901 136.455 42.0288C136.489 42.1567 136.542 42.2514 136.618 42.313C136.695 42.3793 136.801 42.4077 136.935 42.4077Z" fill="white"/>
<path d="M140.421 39.5522C140.651 39.268 140.934 39.126 141.27 39.126C141.639 39.126 141.922 39.2539 142.114 39.5096C142.306 39.7653 142.402 40.1489 142.407 40.6555V43.1985H141.342V40.665C141.342 40.433 141.304 40.2625 141.232 40.1583C141.16 40.0541 141.04 40.0021 140.877 40.0021C140.685 40.0021 140.536 40.0873 140.426 40.2625V43.1985H139.366V37.5159H140.426V39.5522H140.421Z" fill="white"/>
<path d="M143.418 41.0722C143.418 40.4661 143.562 39.9925 143.855 39.6469C144.143 39.3012 144.545 39.1307 145.059 39.1307C145.577 39.1307 145.979 39.3059 146.267 39.6469C146.555 39.9925 146.703 40.4708 146.703 41.0817V41.3374C146.703 41.9483 146.56 42.4218 146.272 42.7675C145.984 43.1085 145.581 43.2837 145.063 43.2837C144.545 43.2837 144.143 43.1132 143.85 42.7675C143.562 42.4218 143.418 41.9436 143.418 41.3327V41.0722ZM144.483 41.3327C144.483 42.0477 144.675 42.4076 145.063 42.4076C145.423 42.4076 145.615 42.1093 145.639 41.5126L145.644 41.0722C145.644 40.7076 145.591 40.4377 145.49 40.2625C145.389 40.0872 145.241 39.9973 145.054 39.9973C144.872 39.9973 144.732 40.0872 144.632 40.2625C144.531 40.4377 144.483 40.7076 144.483 41.0722V41.3327Z" fill="white"/>
<path d="M150.895 39.2017L150.923 39.5711C151.158 39.2775 151.475 39.126 151.863 39.126C152.266 39.126 152.554 39.3059 152.722 39.6658C152.957 39.3059 153.283 39.126 153.714 39.126C154.424 39.126 154.789 39.609 154.803 40.5797V43.2032H153.743V40.646C153.743 40.414 153.71 40.2483 153.647 40.1488C153.58 40.0494 153.475 40.002 153.316 40.002C153.12 40.002 152.971 40.1204 152.875 40.3619L152.885 40.4898V43.2032H151.825V40.6555C151.825 40.4282 151.791 40.2625 151.729 40.1583C151.667 40.0541 151.556 40.0068 151.398 40.0068C151.216 40.0068 151.072 40.1062 150.962 40.3004V43.208H149.902V39.2065H150.895V39.2017Z" fill="white"/>
<path d="M155.849 41.0722C155.849 40.4661 155.992 39.9925 156.285 39.6469C156.573 39.3012 156.976 39.1307 157.489 39.1307C158.007 39.1307 158.41 39.3059 158.697 39.6469C158.985 39.9925 159.134 40.4708 159.134 41.0817V41.3374C159.134 41.9483 158.99 42.4218 158.702 42.7675C158.414 43.1085 158.011 43.2837 157.494 43.2837C156.976 43.2837 156.568 43.1132 156.28 42.7675C155.992 42.4218 155.849 41.9436 155.849 41.3327V41.0722ZM157.484 43.5773C157.666 43.5773 157.815 43.6246 157.925 43.7241C158.04 43.8235 158.093 43.9467 158.093 44.0935C158.093 44.2403 158.035 44.3634 157.925 44.4628C157.81 44.5623 157.666 44.6096 157.484 44.6096C157.302 44.6096 157.158 44.5623 157.043 44.4628C156.928 44.3634 156.87 44.2403 156.87 44.0935C156.87 43.9467 156.928 43.8235 157.043 43.7241C157.153 43.6246 157.302 43.5773 157.484 43.5773ZM156.913 41.3327C156.913 42.0477 157.105 42.4076 157.494 42.4076C157.853 42.4076 158.045 42.1093 158.069 41.5126L158.074 41.0722C158.074 40.7076 158.021 40.4377 157.92 40.2625C157.82 40.0872 157.671 39.9973 157.489 39.9973C157.307 39.9973 157.167 40.0872 157.067 40.2625C156.966 40.4377 156.918 40.7076 156.918 41.0722V41.3327H156.913Z" fill="white"/>
<path d="M160.174 38.1647C160.174 38.0037 160.227 37.8711 160.333 37.7669C160.438 37.6627 160.577 37.6106 160.755 37.6106C160.932 37.6106 161.071 37.6627 161.177 37.7669C161.282 37.8711 161.335 38.0037 161.335 38.1647C161.335 38.3257 161.282 38.4583 161.181 38.5625C161.081 38.6666 160.937 38.7234 160.759 38.7234C160.582 38.7234 160.443 38.6714 160.337 38.5625C160.227 38.4583 160.174 38.3257 160.174 38.1647ZM161.287 43.2032H160.222V39.2017H161.287V43.2032Z" fill="white"/>
<path d="M165.613 39.2017L165.641 39.5995C165.881 39.287 166.193 39.1307 166.581 39.1307C167.277 39.1307 167.636 39.6137 167.656 40.575V43.2032H166.591V40.6508C166.591 40.4235 166.557 40.2577 166.485 40.1583C166.414 40.0541 166.298 40.0068 166.126 40.0068C165.934 40.0068 165.785 40.1062 165.675 40.3004V43.2079H164.61V39.2065H165.613V39.2017Z" fill="white"/>
<path d="M169.838 39.5522C170.068 39.268 170.351 39.126 170.687 39.126C171.056 39.126 171.339 39.2539 171.531 39.5096C171.722 39.7653 171.818 40.1489 171.823 40.6555V43.1985H170.758V40.665C170.758 40.433 170.72 40.2625 170.648 40.1583C170.576 40.0541 170.456 40.0021 170.288 40.0021C170.097 40.0021 169.948 40.0873 169.838 40.2625V43.1985H168.778V37.5159H169.838V39.5522Z" fill="white"/>
<path d="M174.887 43.2032C174.858 43.1417 174.825 43.0375 174.796 42.8907C174.609 43.1464 174.35 43.2742 174.024 43.2742C173.683 43.2742 173.405 43.1606 173.18 42.9428C172.955 42.7202 172.844 42.4313 172.844 42.0809C172.844 41.6595 172.979 41.3374 173.252 41.1054C173.52 40.8781 173.914 40.7597 174.422 40.755H174.743V40.433C174.743 40.253 174.71 40.1252 174.647 40.0541C174.585 39.9784 174.494 39.9452 174.374 39.9452C174.11 39.9452 173.976 40.0967 173.976 40.4045H172.921C172.921 40.0352 173.06 39.7274 173.343 39.4906C173.626 39.2491 173.981 39.1307 174.408 39.1307C174.854 39.1307 175.194 39.2444 175.439 39.4717C175.683 39.699 175.803 40.0257 175.803 40.4519V42.3366C175.808 42.6823 175.856 42.9522 175.952 43.1464V43.208H174.887V43.2032ZM174.906 38.6666H174.01L172.974 37.5207H174.163L174.906 38.6666ZM174.259 42.455C174.379 42.455 174.475 42.4313 174.561 42.384C174.643 42.3366 174.705 42.2798 174.743 42.2182V41.3848H174.489C174.312 41.3848 174.168 41.4416 174.062 41.5553C173.957 41.6689 173.909 41.8205 173.909 42.0099C173.909 42.3082 174.029 42.455 174.259 42.455Z" fill="white"/>
<path d="M59.5812 38.7235H58.2336V43.2032H57.1306V38.7235H55.8022V37.8143H59.5812V38.7235Z" fill="white"/>
<path d="M61.8447 43.2032C61.8159 43.1417 61.7824 43.0375 61.7536 42.8907C61.5618 43.1464 61.3076 43.2742 60.9815 43.2742C60.641 43.2742 60.3581 43.1606 60.1375 42.9428C59.9121 42.7202 59.8018 42.4313 59.8018 42.0809C59.8018 41.6595 59.936 41.3374 60.2094 41.1054C60.4827 40.8781 60.8712 40.7597 61.3795 40.755H61.7008V40.433C61.7008 40.253 61.6673 40.1252 61.6049 40.0541C61.5426 39.9784 61.4515 39.9452 61.3316 39.9452C61.0678 39.9452 60.9335 40.0967 60.9335 40.4045H59.8737C59.8737 40.0352 60.0128 39.7274 60.2957 39.4906C60.5787 39.2491 60.9335 39.1307 61.3603 39.1307C61.8063 39.1307 62.1468 39.2444 62.3914 39.4717C62.636 39.699 62.7559 40.0257 62.7559 40.4519V42.3366C62.7607 42.6823 62.8086 42.9522 62.9046 43.1464V43.208H61.8447V43.2032ZM61.8591 38.6666H60.9623L59.9264 37.5207H61.1158L61.8591 38.6666ZM61.2165 42.455C61.3364 42.455 61.4323 42.4313 61.5186 42.384C61.6001 42.3366 61.6625 42.2798 61.7008 42.2182V41.3848H61.4467C61.2644 41.3848 61.1253 41.4416 61.0198 41.5553C60.9143 41.6689 60.8664 41.8205 60.8664 42.0099C60.8664 42.3082 60.9815 42.455 61.2165 42.455Z" fill="white"/>
<path d="M63.9116 38.1647C63.9116 38.0037 63.9644 37.8711 64.0699 37.7669C64.1754 37.6627 64.3145 37.6106 64.4919 37.6106C64.6693 37.6106 64.8084 37.6627 64.9091 37.7669C65.0146 37.8711 65.0674 38.0037 65.0674 38.1647C65.0674 38.3257 65.0146 38.4583 64.9139 38.5625C64.8084 38.6666 64.6693 38.7234 64.4919 38.7234C64.3145 38.7234 64.1754 38.6714 64.0699 38.5625C63.9644 38.4535 63.9116 38.3257 63.9116 38.1647ZM65.0242 43.2032H63.9596V39.2017H65.0242V43.2032Z" fill="white"/>
<path d="M69.8438 42.4077C70.1507 42.4077 70.309 42.2088 70.3137 41.8158H71.3112C71.3065 42.2514 71.1674 42.6066 70.9036 42.8718C70.6351 43.1417 70.2898 43.2743 69.8726 43.2743C69.3498 43.2743 68.9518 43.1133 68.6784 42.7913C68.4051 42.4693 68.266 42.0004 68.2612 41.3754V41.0581C68.2612 40.4282 68.3955 39.95 68.664 39.6185C68.9374 39.287 69.3354 39.1213 69.8678 39.1213C70.3138 39.1213 70.6686 39.2586 70.9228 39.5285C71.1818 39.8032 71.3113 40.1868 71.316 40.6887H70.3185C70.3138 40.4661 70.2802 40.2909 70.2035 40.1725C70.1315 40.0494 70.0116 39.9926 69.8438 39.9926C69.6616 39.9926 69.5273 40.0589 69.4457 40.1868C69.3642 40.3146 69.3259 40.5656 69.3163 40.9397V41.347C69.3163 41.6737 69.3354 41.901 69.3642 42.0288C69.3978 42.1567 69.4506 42.2514 69.5273 42.313C69.604 42.3793 69.7095 42.4077 69.8438 42.4077Z" fill="white"/>
<path d="M73.3256 39.5522C73.5557 39.268 73.8387 39.126 74.1744 39.126C74.5437 39.126 74.8218 39.2539 75.0184 39.5096C75.2102 39.7653 75.3062 40.1489 75.311 40.6555V43.1985H74.2463V40.665C74.2463 40.433 74.208 40.2625 74.136 40.1583C74.0641 40.0541 73.9442 40.0021 73.7811 40.0021C73.5893 40.0021 73.4407 40.0873 73.3304 40.2625V43.1985H72.2705V37.5159H73.3304V39.5522H73.3256Z" fill="white"/>
<path d="M77.5935 43.2032H76.5337V39.2017H77.5935V43.2032ZM77.2866 37.5775H78.4759L77.4353 38.7235H76.5529L77.2866 37.5775Z" fill="white"/>
<path d="M79.8187 39.2017L79.8475 39.5995C80.0872 39.2869 80.399 39.1306 80.7874 39.1306C81.4828 39.1306 81.8424 39.6137 81.8616 40.575V43.2032H80.797V40.6507C80.797 40.4234 80.7634 40.2577 80.6915 40.1583C80.6243 40.0541 80.5045 40.0067 80.3318 40.0067C80.14 40.0067 79.9913 40.1062 79.881 40.3003V43.2079H78.8164V39.2064H79.8187V39.2017Z" fill="white"/>
<path d="M84.0436 39.5522C84.2738 39.268 84.5568 39.126 84.8877 39.126C85.2569 39.126 85.5399 39.2539 85.7317 39.5096C85.9235 39.7653 86.0194 40.1489 86.0242 40.6555V43.1985H84.9596V40.665C84.9596 40.433 84.9212 40.2625 84.8493 40.1583C84.7773 40.0541 84.6575 40.0021 84.4896 40.0021C84.2978 40.0021 84.1491 40.0873 84.0388 40.2625V43.1985H82.979V37.5159H84.0388V39.5522H84.0436Z" fill="white"/>
<path d="M92.6803 38.7235H91.3328V43.2032H90.225V38.7235H88.9014V37.8143H92.6803V38.7235Z" fill="white"/>
<path d="M93.6445 38.1646C93.6445 38.0036 93.6973 37.871 93.8028 37.7668C93.9083 37.6627 94.0474 37.6106 94.22 37.6106C94.3926 37.6106 94.5365 37.6627 94.642 37.7668C94.7475 37.871 94.8003 38.0036 94.8003 38.1646C94.8003 38.3256 94.7475 38.4582 94.642 38.5624C94.5365 38.6666 94.3974 38.7234 94.22 38.7234C94.0426 38.7234 93.9035 38.6713 93.798 38.5624C93.6973 38.4582 93.6445 38.3256 93.6445 38.1646ZM94.7571 43.2032H93.6925V39.2017H94.7571V43.2032Z" fill="white"/>
<path d="M97.6008 43.2742C97.0541 43.2742 96.6321 43.1133 96.3252 42.796C96.0183 42.474 95.8696 42.0146 95.8696 41.4179V41.1007C95.8696 40.4709 96.0087 39.9831 96.2916 39.6374C96.5698 39.2965 96.9726 39.1213 97.4953 39.1213C98.0037 39.1213 98.3873 39.2822 98.6463 39.6043C98.9053 39.9263 99.0347 40.3998 99.0395 41.0344V41.5458H96.9294C96.9438 41.8441 97.011 42.062 97.1261 42.1993C97.2412 42.3366 97.4234 42.4077 97.668 42.4077C98.0229 42.4077 98.3202 42.2893 98.5552 42.0478L98.9724 42.6823C98.8429 42.8575 98.6511 43.0043 98.4065 43.1133C98.1571 43.2222 97.8886 43.2742 97.6008 43.2742ZM98.6415 38.553V38.5956H97.8119L97.3419 38.0605L96.8719 38.5956H96.0614V38.5341L97.035 37.5159H97.644L98.6415 38.553ZM97.4426 43.5536C97.6248 43.5536 97.7735 43.601 97.8886 43.7004C98.0037 43.7999 98.0564 43.923 98.0564 44.0698C98.0564 44.2166 97.9989 44.3397 97.8886 44.4392C97.7735 44.5386 97.6248 44.586 97.4426 44.586C97.2651 44.586 97.1165 44.5386 97.0014 44.4392C96.8863 44.3397 96.8288 44.2214 96.8288 44.0698C96.8288 43.923 96.8863 43.7999 97.0014 43.7004C97.1165 43.601 97.2604 43.5536 97.4426 43.5536ZM96.9342 40.8213H97.9941V40.7266C97.9893 40.4898 97.9509 40.3051 97.8742 40.182C97.7975 40.0589 97.668 39.9973 97.4858 39.9973C97.2987 39.9973 97.1692 40.0636 97.0829 40.1962C96.9966 40.3288 96.9486 40.5324 96.9342 40.8213Z" fill="white"/>
<path d="M100.987 39.2017L101.015 39.5995C101.255 39.287 101.567 39.1307 101.955 39.1307C102.651 39.1307 103.01 39.6137 103.03 40.575V43.2032H101.965V40.6508C101.965 40.4235 101.931 40.2577 101.859 40.1583C101.792 40.0541 101.672 40.0068 101.5 40.0068C101.308 40.0068 101.159 40.1062 101.049 40.3004V43.2079H99.9844V39.2065H100.987V39.2017Z" fill="white"/>
<path d="M107.658 41.721L108.171 39.197H109.278L108.166 43.2032H107.154L106.037 39.197H107.144L107.658 41.721Z" fill="white"/>
<path d="M112.026 43.2032C111.998 43.1417 111.969 43.0375 111.935 42.8907C111.748 43.1464 111.489 43.2742 111.163 43.2742C110.823 43.2742 110.544 43.1606 110.319 42.9428C110.094 42.7202 109.983 42.4313 109.983 42.0809C109.983 41.6595 110.118 41.3374 110.391 41.1054C110.664 40.8781 111.053 40.7597 111.561 40.755H111.882V40.433C111.882 40.253 111.849 40.1252 111.787 40.0541C111.724 39.9784 111.633 39.9452 111.513 39.9452C111.249 39.9452 111.115 40.0967 111.115 40.4045H110.055C110.055 40.0352 110.194 39.7274 110.477 39.4906C110.76 39.2491 111.115 39.1307 111.542 39.1307C111.988 39.1307 112.328 39.2444 112.573 39.4717C112.818 39.699 112.937 40.0257 112.937 40.4519V42.3366C112.942 42.6823 112.99 42.9522 113.086 43.1464V43.208H112.026V43.2032ZM112.046 38.6666H111.149L110.113 37.5207H111.302L112.046 38.6666ZM111.403 42.455C111.518 42.455 111.619 42.4313 111.705 42.384C111.787 42.3366 111.849 42.2798 111.887 42.2182V41.3848H111.633C111.451 41.3848 111.312 41.4416 111.206 41.5553C111.101 41.6689 111.053 41.8205 111.053 42.0099C111.053 42.3082 111.168 42.455 111.403 42.455Z" fill="white"/>
<path d="M120.116 43.2032H119.013L117.402 39.6706V43.2032H116.304V37.8143H117.402L119.018 41.3516V37.8143H120.116V43.2032Z" fill="white"/>
<path d="M121.205 41.077C121.205 40.4188 121.325 39.931 121.565 39.609C121.805 39.287 122.14 39.126 122.572 39.126C122.941 39.126 123.224 39.2681 123.421 39.5569L123.464 39.2018H124.418V43.2032C124.418 43.7147 124.274 44.103 123.982 44.3729C123.689 44.6428 123.277 44.7802 122.735 44.7802C122.514 44.7802 122.279 44.7375 122.035 44.6475C121.79 44.5623 121.608 44.4486 121.488 44.3113L121.843 43.5868C121.944 43.691 122.073 43.7762 122.231 43.8425C122.39 43.9088 122.543 43.942 122.687 43.942C122.927 43.942 123.095 43.8851 123.2 43.7762C123.306 43.6626 123.358 43.4826 123.358 43.2316V42.886C123.157 43.1464 122.893 43.279 122.567 43.279C122.135 43.279 121.8 43.1133 121.565 42.7818C121.33 42.4503 121.21 41.9815 121.205 41.3754V41.077ZM122.265 41.3422C122.265 41.7116 122.313 41.9815 122.414 42.1519C122.509 42.3224 122.668 42.4029 122.879 42.4029C123.095 42.4029 123.258 42.3272 123.363 42.1709V40.2578C123.253 40.0873 123.095 40.0021 122.888 40.0021C122.677 40.0021 122.524 40.0873 122.418 40.2578C122.318 40.4282 122.27 40.7029 122.27 41.077V41.3422H122.265Z" fill="white"/>
<path d="M127.497 43.2032C127.468 43.1416 127.439 43.0374 127.406 42.8906C127.214 43.1464 126.96 43.2742 126.634 43.2742C126.293 43.2742 126.015 43.1606 125.79 42.9427C125.564 42.7202 125.454 42.4313 125.454 42.0809C125.454 41.6594 125.588 41.3374 125.862 41.1054C126.13 40.8781 126.524 40.7597 127.032 40.755H127.353V40.4329C127.353 40.253 127.32 40.1251 127.257 40.0541C127.195 39.9783 127.104 39.9452 126.984 39.9452C126.72 39.9452 126.586 40.0967 126.586 40.4045H125.526C125.526 40.0352 125.665 39.7273 125.948 39.4906C126.231 39.2491 126.586 39.1307 127.013 39.1307C127.454 39.1307 127.799 39.2443 128.044 39.4716C128.288 39.6989 128.408 40.0257 128.408 40.4519V42.3366C128.413 42.6823 128.461 42.9522 128.557 43.1464V43.2079H127.497V43.2032ZM126.874 42.455C126.989 42.455 127.089 42.4313 127.171 42.3839C127.252 42.3366 127.315 42.2798 127.353 42.2182V41.3848H127.099C126.922 41.3848 126.778 41.4416 126.672 41.5552C126.567 41.6689 126.519 41.8204 126.519 42.0098C126.524 42.3082 126.639 42.455 126.874 42.455Z" fill="white"/>
<path d="M130.811 41.4605L131.353 39.2017H132.484L131.151 43.8046C130.95 44.4818 130.576 44.8227 130.024 44.8227C129.895 44.8227 129.751 44.799 129.588 44.7517V43.9324L129.713 43.9372C129.876 43.9372 130 43.904 130.087 43.8425C130.168 43.7809 130.235 43.672 130.274 43.5157L130.355 43.2458L129.185 39.2017H130.326L130.811 41.4605Z" fill="white"/>
<path d="M136.935 42.4077C137.242 42.4077 137.4 42.2088 137.405 41.8158H138.402C138.398 42.2514 138.263 42.6066 137.995 42.8718C137.726 43.1417 137.381 43.2743 136.959 43.2743C136.436 43.2743 136.038 43.1133 135.765 42.7913C135.491 42.4693 135.348 42.0004 135.343 41.3754V41.0581C135.343 40.4282 135.477 39.95 135.75 39.6185C136.024 39.287 136.422 39.1213 136.954 39.1213C137.4 39.1213 137.755 39.2586 138.009 39.5285C138.268 39.8032 138.398 40.1868 138.402 40.6887H137.405C137.4 40.4661 137.367 40.2909 137.295 40.1725C137.223 40.0494 137.103 39.9926 136.935 39.9926C136.748 39.9926 136.618 40.0589 136.537 40.1868C136.455 40.3146 136.412 40.5656 136.407 40.9397V41.347C136.407 41.6737 136.422 41.901 136.455 42.0288C136.489 42.1567 136.542 42.2514 136.618 42.313C136.695 42.3793 136.801 42.4077 136.935 42.4077Z" fill="white"/>
<path d="M140.421 39.5522C140.651 39.268 140.934 39.126 141.27 39.126C141.639 39.126 141.922 39.2539 142.114 39.5096C142.306 39.7653 142.402 40.1489 142.407 40.6555V43.1985H141.342V40.665C141.342 40.433 141.304 40.2625 141.232 40.1583C141.16 40.0541 141.04 40.0021 140.877 40.0021C140.685 40.0021 140.536 40.0873 140.426 40.2625V43.1985H139.366V37.5159H140.426V39.5522H140.421Z" fill="white"/>
<path d="M143.418 41.0722C143.418 40.4661 143.562 39.9925 143.855 39.6469C144.143 39.3012 144.545 39.1307 145.059 39.1307C145.577 39.1307 145.979 39.3059 146.267 39.6469C146.555 39.9925 146.703 40.4708 146.703 41.0817V41.3374C146.703 41.9483 146.56 42.4218 146.272 42.7675C145.984 43.1085 145.581 43.2837 145.063 43.2837C144.545 43.2837 144.143 43.1132 143.85 42.7675C143.562 42.4218 143.418 41.9436 143.418 41.3327V41.0722ZM144.483 41.3327C144.483 42.0477 144.675 42.4076 145.063 42.4076C145.423 42.4076 145.615 42.1093 145.639 41.5126L145.644 41.0722C145.644 40.7076 145.591 40.4377 145.49 40.2625C145.389 40.0872 145.241 39.9973 145.054 39.9973C144.872 39.9973 144.732 40.0872 144.632 40.2625C144.531 40.4377 144.483 40.7076 144.483 41.0722V41.3327Z" fill="white"/>
<path d="M150.895 39.2017L150.923 39.5711C151.158 39.2775 151.475 39.126 151.863 39.126C152.266 39.126 152.554 39.3059 152.722 39.6658C152.957 39.3059 153.283 39.126 153.714 39.126C154.424 39.126 154.789 39.609 154.803 40.5797V43.2032H153.743V40.646C153.743 40.414 153.71 40.2483 153.647 40.1488C153.58 40.0494 153.475 40.002 153.316 40.002C153.12 40.002 152.971 40.1204 152.875 40.3619L152.885 40.4898V43.2032H151.825V40.6555C151.825 40.4282 151.791 40.2625 151.729 40.1583C151.667 40.0541 151.556 40.0068 151.398 40.0068C151.216 40.0068 151.072 40.1062 150.962 40.3004V43.208H149.902V39.2065H150.895V39.2017Z" fill="white"/>
<path d="M155.849 41.0722C155.849 40.4661 155.992 39.9925 156.285 39.6469C156.573 39.3012 156.976 39.1307 157.489 39.1307C158.007 39.1307 158.41 39.3059 158.697 39.6469C158.985 39.9925 159.134 40.4708 159.134 41.0817V41.3374C159.134 41.9483 158.99 42.4218 158.702 42.7675C158.414 43.1085 158.011 43.2837 157.494 43.2837C156.976 43.2837 156.568 43.1132 156.28 42.7675C155.992 42.4218 155.849 41.9436 155.849 41.3327V41.0722ZM157.484 43.5773C157.666 43.5773 157.815 43.6246 157.925 43.7241C158.04 43.8235 158.093 43.9467 158.093 44.0935C158.093 44.2403 158.035 44.3634 157.925 44.4628C157.81 44.5623 157.666 44.6096 157.484 44.6096C157.302 44.6096 157.158 44.5623 157.043 44.4628C156.928 44.3634 156.87 44.2403 156.87 44.0935C156.87 43.9467 156.928 43.8235 157.043 43.7241C157.153 43.6246 157.302 43.5773 157.484 43.5773ZM156.913 41.3327C156.913 42.0477 157.105 42.4076 157.494 42.4076C157.853 42.4076 158.045 42.1093 158.069 41.5126L158.074 41.0722C158.074 40.7076 158.021 40.4377 157.92 40.2625C157.82 40.0872 157.671 39.9973 157.489 39.9973C157.307 39.9973 157.167 40.0872 157.067 40.2625C156.966 40.4377 156.918 40.7076 156.918 41.0722V41.3327H156.913Z" fill="white"/>
<path d="M160.174 38.1647C160.174 38.0037 160.227 37.8711 160.333 37.7669C160.438 37.6627 160.577 37.6106 160.755 37.6106C160.932 37.6106 161.071 37.6627 161.177 37.7669C161.282 37.8711 161.335 38.0037 161.335 38.1647C161.335 38.3257 161.282 38.4583 161.181 38.5625C161.081 38.6666 160.937 38.7234 160.759 38.7234C160.582 38.7234 160.443 38.6714 160.337 38.5625C160.227 38.4583 160.174 38.3257 160.174 38.1647ZM161.287 43.2032H160.222V39.2017H161.287V43.2032Z" fill="white"/>
<path d="M165.613 39.2017L165.641 39.5995C165.881 39.287 166.193 39.1307 166.581 39.1307C167.277 39.1307 167.636 39.6137 167.656 40.575V43.2032H166.591V40.6508C166.591 40.4235 166.557 40.2577 166.485 40.1583C166.414 40.0541 166.298 40.0068 166.126 40.0068C165.934 40.0068 165.785 40.1062 165.675 40.3004V43.2079H164.61V39.2065H165.613V39.2017Z" fill="white"/>
<path d="M169.838 39.5522C170.068 39.268 170.351 39.126 170.687 39.126C171.056 39.126 171.339 39.2539 171.531 39.5096C171.722 39.7653 171.818 40.1489 171.823 40.6555V43.1985H170.758V40.665C170.758 40.433 170.72 40.2625 170.648 40.1583C170.576 40.0541 170.456 40.0021 170.288 40.0021C170.097 40.0021 169.948 40.0873 169.838 40.2625V43.1985H168.778V37.5159H169.838V39.5522Z" fill="white"/>
<path d="M174.887 43.2032C174.858 43.1417 174.825 43.0375 174.796 42.8907C174.609 43.1464 174.35 43.2742 174.024 43.2742C173.683 43.2742 173.405 43.1606 173.18 42.9428C172.955 42.7202 172.844 42.4313 172.844 42.0809C172.844 41.6595 172.979 41.3374 173.252 41.1054C173.52 40.8781 173.914 40.7597 174.422 40.755H174.743V40.433C174.743 40.253 174.71 40.1252 174.647 40.0541C174.585 39.9784 174.494 39.9452 174.374 39.9452C174.11 39.9452 173.976 40.0967 173.976 40.4045H172.921C172.921 40.0352 173.06 39.7274 173.343 39.4906C173.626 39.2491 173.981 39.1307 174.408 39.1307C174.854 39.1307 175.194 39.2444 175.439 39.4717C175.683 39.699 175.803 40.0257 175.803 40.4519V42.3366C175.808 42.6823 175.856 42.9522 175.952 43.1464V43.208H174.887V43.2032ZM174.906 38.6666H174.01L172.974 37.5207H174.163L174.906 38.6666ZM174.259 42.455C174.379 42.455 174.475 42.4313 174.561 42.384C174.643 42.3366 174.705 42.2798 174.743 42.2182V41.3848H174.489C174.312 41.3848 174.168 41.4416 174.062 41.5553C173.957 41.6689 173.909 41.8205 173.909 42.0099C173.909 42.3082 174.029 42.455 174.259 42.455Z" fill="white"/>
<path d="M59.164 16.5094H55.8022V12.7116H67.096V16.5094H63.691V29.8729H59.164V16.5094Z" fill="white"/>
<path d="M67.7529 12.7116H72.1362V15.9317H67.7529V12.7116ZM67.7529 16.8693H72.1362V29.8729H67.7529V16.8693Z" fill="white"/>
<path d="M77.9531 24.1051V25.8098C77.9531 26.9795 78.3512 27.5667 79.1472 27.5667C79.5693 27.5667 79.881 27.4009 80.0824 27.06C80.2838 26.7238 80.3893 26.1366 80.3893 25.3031H84.3313C84.2978 26.9369 83.8757 28.1539 83.0653 28.9447C82.2548 29.7403 80.9552 30.1333 79.1712 30.1333C77.0755 30.1333 75.6224 29.6313 74.8024 28.6322C73.9823 27.633 73.5747 25.8809 73.5747 23.3805C73.5747 20.9134 74.0063 19.1565 74.8791 18.1052C75.7471 17.054 77.181 16.5331 79.176 16.5331C80.9936 16.5331 82.3267 17.0018 83.1804 17.9395C84.0292 18.8771 84.456 20.4919 84.456 22.7839V24.1051H77.9531ZM80.3653 21.1738C80.3653 20.4682 80.2742 19.9615 80.0968 19.649C79.9193 19.3365 79.6028 19.1802 79.1472 19.1802C78.7108 19.1802 78.3991 19.3365 78.2217 19.649C78.0442 19.9615 77.9531 20.473 77.9531 21.1738V21.7515H80.3653V21.1738Z" fill="white"/>
<path d="M85.6693 16.8693H89.9038V18.4556H89.9518C90.5177 17.1723 91.5823 16.5331 93.1409 16.5331C94.2103 16.5331 95.0543 16.7982 95.6586 17.3239C96.2676 17.8542 96.5697 18.7635 96.5697 20.061V29.8681H92.1866V21.2874C92.1866 20.7429 92.105 20.3498 91.942 20.1083C91.7789 19.8668 91.5056 19.7484 91.1171 19.7484C90.7287 19.7484 90.4505 19.8668 90.2875 20.1083C90.1244 20.3498 90.0429 20.7429 90.0429 21.2874V29.8681H85.6597V16.8693H85.6693Z" fill="white"/>
<path d="M98.5215 12.7116H103.586L106.506 23.2906H106.554V12.7116H110.794V29.8729H105.825L102.809 19.2749H102.761V29.8729H98.5215V12.7116Z" fill="white"/>
<path d="M119.483 16.5473H123.574V29.655C123.574 32.6999 121.742 34.22 118.073 34.22C117.052 34.22 116.189 34.1301 115.493 33.9454C114.793 33.7607 114.203 33.3866 113.714 32.8278C113.23 32.2643 112.976 31.5161 112.961 30.569H116.903C116.903 31.2414 117.268 31.5776 117.997 31.5776C118.404 31.5776 118.726 31.4734 118.97 31.2651C119.215 31.0567 119.335 30.6211 119.335 29.9676V27.5619H119.287C118.798 28.8595 117.81 29.5082 116.318 29.5082C113.753 29.5082 112.472 27.3678 112.472 23.0917C112.472 20.705 112.813 19.0145 113.494 18.02C114.175 17.0256 115.186 16.5283 116.534 16.5283C118.025 16.5283 118.994 17.2434 119.431 18.6688H119.479V16.5473H119.483ZM116.851 23.0254C116.851 24.3229 116.946 25.1942 117.143 25.6346C117.34 26.075 117.661 26.2976 118.117 26.2976C118.553 26.2976 118.87 26.0798 119.052 25.6488C119.239 25.2179 119.335 24.3418 119.335 23.0301C119.335 21.7468 119.239 20.8802 119.042 20.4351C118.85 19.9852 118.539 19.7627 118.117 19.7627C117.68 19.7627 117.359 19.9852 117.153 20.4351C116.956 20.8755 116.851 21.7421 116.851 23.0254Z" fill="white"/>
<path d="M131.799 29.8729C131.717 29.6645 131.626 29.1768 131.53 28.4049H131.482C130.993 29.5603 130.005 30.1333 128.514 30.1333C126.078 30.1333 124.864 28.8831 124.864 26.3828C124.864 25.1658 125.128 24.2424 125.656 23.6173C126.183 22.9922 127.137 22.5187 128.519 22.2014L130.245 21.7942C130.715 21.6805 131.051 21.5195 131.242 21.3017C131.439 21.0838 131.535 20.776 131.535 20.3783C131.535 19.578 131.161 19.1755 130.413 19.1755C129.976 19.1755 129.66 19.2938 129.478 19.5353C129.291 19.7768 129.19 20.2314 129.171 20.9039H125.373C125.373 20.0231 125.536 19.2749 125.857 18.6545C126.178 18.0389 126.615 17.5843 127.161 17.2955C127.703 17.0066 128.236 16.8077 128.754 16.694C129.271 16.5804 129.823 16.5283 130.408 16.5283C132.096 16.5283 133.386 16.8314 134.278 17.4423C135.17 18.0531 135.616 19.1423 135.616 20.7097V27.0552C135.616 28.4191 135.755 29.3567 136.029 29.8681H131.799V29.8729ZM130.168 27.3015C131.075 27.3015 131.53 26.5864 131.53 25.1611V23.5984H131.482C131.401 23.712 131.29 23.7925 131.156 23.8399C131.017 23.8872 130.83 23.9393 130.595 23.9962C130.36 24.053 130.159 24.1193 130 24.1998C129.401 24.4744 129.099 25.0332 129.099 25.8809C129.099 26.3118 129.195 26.6575 129.391 26.9132C129.583 27.1736 129.842 27.3015 130.168 27.3015Z" fill="white"/>
<path d="M137.913 31.0994C138.186 31.1657 138.512 31.1941 138.886 31.1941C139.371 31.1941 139.74 31.0757 139.98 30.8436C140.224 30.6116 140.34 30.2043 140.34 30.0149C140.34 29.9013 140.272 29.6077 140.148 29.1246L136.589 16.5473L141.14 16.5283L142.531 25.6393H142.579L143.888 16.5473L148.305 16.552L144.694 30.2328C144.32 31.6913 143.812 32.8799 143.164 33.4197C142.512 33.9548 141.582 34.2247 140.364 34.2247C139.39 34.2247 138.57 34.1916 137.903 34.13V31.0994H137.913Z" fill="white"/>
<path d="M151.835 25.1137H147.744V29.8728H151.835V25.1137Z" fill="white"/>
<path d="M152.803 16.5567H157.292L158.577 26.2218H158.625L159.882 16.5615H164.447L161.157 29.8729H155.997L152.803 16.5567Z" fill="white"/>
<path d="M165.099 16.5568H169.334V18.4557H169.382C169.948 17.1724 171.012 16.5331 172.571 16.5331C173.64 16.5331 174.485 16.7983 175.089 17.3239C175.698 17.8543 176 18.7682 176 20.0657V29.8729H171.617V21.2922C171.617 20.7476 171.535 20.3546 171.372 20.1131C171.209 19.8716 170.936 19.7532 170.547 19.7532C170.159 19.7532 169.881 19.8763 169.718 20.1131C169.555 20.3546 169.473 20.7476 169.473 21.2922V29.8729H165.09V16.5568H165.099Z" fill="white"/>
<path d="M18.775 23.9441H15.4899C15.1878 23.9441 14.9097 23.7973 14.737 23.5558L10.114 17.0397H7.86008L13.7731 25.3789C13.9458 25.6251 14.2287 25.7672 14.526 25.7672H21.3502C21.6523 25.7672 21.9353 25.914 22.1079 26.1555L33.5983 42.3603C33.8189 42.6728 33.8189 43.0895 33.5983 43.4068L25.297 55.1129C24.9278 55.629 24.1557 55.629 23.7864 55.1129L15.4852 43.4068C15.2646 43.0943 15.2646 42.6775 15.4852 42.365L19.8971 36.1473C20.2664 35.6312 21.0385 35.6312 21.4078 36.1426L23.0527 38.4535C23.2781 38.766 23.2781 39.1875 23.0527 39.5001L21.0193 42.365C20.7987 42.6775 20.7987 43.0943 21.0193 43.4068L24.5441 48.3743L28.0641 43.4068C28.2847 43.0943 28.2847 42.6775 28.0641 42.365L19.7485 30.64C19.5758 30.3985 19.2929 30.2517 18.9908 30.2517H14.5164C14.2143 30.2517 13.9362 30.3985 13.7635 30.64L7.84571 38.9839L10.0996 38.9744L14.7226 32.4584C14.8953 32.2169 15.1782 32.0701 15.4804 32.0701H18.0316C18.3338 32.0701 18.6119 32.2122 18.7893 32.4584L19.1538 32.9746C19.3744 33.2871 19.3744 33.7038 19.1538 34.0164L12.7372 43.0658C12.5646 43.3074 12.2816 43.4542 11.9843 43.4542H0.920802C0.177478 43.4542 -0.258929 42.6255 0.167883 42.0241L9.73039 28.5327C9.95099 28.2202 9.95099 27.8035 9.73039 27.4909L0.172683 14.009C-0.254129 13.4076 0.182249 12.5789 0.925573 12.5789H11.9939C12.296 12.5789 12.5742 12.7257 12.7468 12.9672L19.5279 22.5329C19.9547 23.1153 19.5231 23.9441 18.775 23.9441Z" fill="white"/>
<path d="M30.3373 32.0559H33.6224C33.9245 32.0559 34.2074 32.2027 34.3752 32.4442L38.9982 38.9602H41.2522L35.3392 30.6211C35.1665 30.3796 34.8836 30.2328 34.5863 30.2328H27.7621C27.4599 30.2328 27.177 30.0907 27.0091 29.8445L15.4996 13.635C15.2742 13.3224 15.2742 12.9057 15.4996 12.5932L23.8009 0.887124C24.1653 0.370959 24.9422 0.370959 25.3115 0.887124L33.6128 12.5932C33.8334 12.9057 33.8334 13.3224 33.6128 13.635L29.2056 19.8527C28.8363 20.3688 28.0594 20.3688 27.6949 19.8527L26.0548 17.537C25.8342 17.2245 25.8342 16.8077 26.0548 16.4905L28.0786 13.635C28.2992 13.3224 28.2992 12.9057 28.0786 12.5932L24.5586 7.62094L21.0386 12.5884C20.818 12.901 20.818 13.3177 21.0386 13.6302L29.3782 25.3647C29.5508 25.6063 29.8338 25.753 30.1359 25.753H34.5767C34.8788 25.753 35.1617 25.6063 35.3344 25.3647L41.2474 17.0256H38.9982L34.3752 23.5463C34.2026 23.7878 33.9197 23.9346 33.6224 23.9346H31.0806C30.7785 23.9346 30.4956 23.7878 30.323 23.5463L29.9489 23.0207C29.7283 22.7081 29.7283 22.2914 29.9489 21.9789L36.3558 12.9389C36.5285 12.6973 36.8114 12.5505 37.1136 12.5505H48.1819C48.9252 12.5505 49.3664 13.3793 48.9396 13.9854L39.3723 27.4673C39.1517 27.7798 39.1517 28.1965 39.3723 28.5138L48.954 42.0004C49.3808 42.6065 48.9444 43.4353 48.2011 43.4353H37.1327C36.8306 43.4353 36.5477 43.2885 36.375 43.0469L29.594 33.486C29.1528 32.8846 29.5892 32.0559 30.3373 32.0559Z" fill="white"/>
</svg>
