<svg width="22" height="23" viewBox="0 0 22 23" fill="none" xmlns="http://www.w3.org/2000/svg">
<path fill-rule="evenodd" clip-rule="evenodd" d="M11 2.5C9.4087 2.5 7.88258 3.13214 6.75736 4.25736C5.63214 5.38258 5 6.9087 5 8.5V13.5C5 14.2082 4.81218 14.8971 4.46411 15.5H17.5359C17.1878 14.8971 17 14.2082 17 13.5V8.5C17 6.9087 16.3679 5.38258 15.2426 4.25736C14.1174 3.13214 12.5913 2.5 11 2.5ZM21 15.5C20.4696 15.5 19.9609 15.2893 19.5858 14.9142C19.2107 14.5391 19 14.0304 19 13.5V8.5C19 6.37827 18.1571 4.34344 16.6569 2.84315C15.1566 1.34285 13.1217 0.5 11 0.5C8.87827 0.5 6.84344 1.34285 5.34315 2.84315C3.84285 4.34344 3 6.37827 3 8.5V13.5C3 14.0304 2.78929 14.5391 2.41421 14.9142C2.03914 15.2893 1.53043 15.5 1 15.5C0.447715 15.5 0 15.9477 0 16.5C0 17.0523 0.447715 17.5 1 17.5H21C21.5523 17.5 22 17.0523 22 16.5C22 15.9477 21.5523 15.5 21 15.5ZM8.76823 19.635C9.24595 19.3579 9.85788 19.5205 10.135 19.9982C10.2229 20.1498 10.3491 20.2756 10.5009 20.363C10.6527 20.4504 10.8248 20.4965 11 20.4965C11.1752 20.4965 11.3473 20.4504 11.4991 20.363C11.6509 20.2756 11.7771 20.1498 11.865 19.9982C12.1421 19.5205 12.754 19.3579 13.2318 19.635C13.7095 19.9121 13.8721 20.524 13.595 21.0018C13.3313 21.4564 12.9528 21.8337 12.4973 22.0961C12.0419 22.3584 11.5256 22.4965 11 22.4965C10.4744 22.4965 9.95809 22.3584 9.50266 22.0961C9.04723 21.8337 8.66871 21.4564 8.405 21.0018C8.12788 20.524 8.2905 19.9121 8.76823 19.635Z" fill="#262626"/>
<path fill-rule="evenodd" clip-rule="evenodd" d="M11 2.5C9.4087 2.5 7.88258 3.13214 6.75736 4.25736C5.63214 5.38258 5 6.9087 5 8.5V13.5C5 14.2082 4.81218 14.8971 4.46411 15.5H17.5359C17.1878 14.8971 17 14.2082 17 13.5V8.5C17 6.9087 16.3679 5.38258 15.2426 4.25736C14.1174 3.13214 12.5913 2.5 11 2.5ZM21 15.5C20.4696 15.5 19.9609 15.2893 19.5858 14.9142C19.2107 14.5391 19 14.0304 19 13.5V8.5C19 6.37827 18.1571 4.34344 16.6569 2.84315C15.1566 1.34285 13.1217 0.5 11 0.5C8.87827 0.5 6.84344 1.34285 5.34315 2.84315C3.84285 4.34344 3 6.37827 3 8.5V13.5C3 14.0304 2.78929 14.5391 2.41421 14.9142C2.03914 15.2893 1.53043 15.5 1 15.5C0.447715 15.5 0 15.9477 0 16.5C0 17.0523 0.447715 17.5 1 17.5H21C21.5523 17.5 22 17.0523 22 16.5C22 15.9477 21.5523 15.5 21 15.5ZM8.76823 19.635C9.24595 19.3579 9.85788 19.5205 10.135 19.9982C10.2229 20.1498 10.3491 20.2756 10.5009 20.363C10.6527 20.4504 10.8248 20.4965 11 20.4965C11.1752 20.4965 11.3473 20.4504 11.4991 20.363C11.6509 20.2756 11.7771 20.1498 11.865 19.9982C12.1421 19.5205 12.754 19.3579 13.2318 19.635C13.7095 19.9121 13.8721 20.524 13.595 21.0018C13.3313 21.4564 12.9528 21.8337 12.4973 22.0961C12.0419 22.3584 11.5256 22.4965 11 22.4965C10.4744 22.4965 9.95809 22.3584 9.50266 22.0961C9.04723 21.8337 8.66871 21.4564 8.405 21.0018C8.12788 20.524 8.2905 19.9121 8.76823 19.635Z" fill="white" fill-opacity="0.1"/>
</svg>
