<svg width="24" height="25" viewBox="0 0 24 25" fill="none" xmlns="http://www.w3.org/2000/svg">
<path fill-rule="evenodd" clip-rule="evenodd" d="M20.1571 3.21321C20.4104 3.11501 20.6856 3.08745 20.9533 3.13345C21.221 3.17945 21.4712 3.2973 21.6772 3.4744C21.8832 3.65151 22.0372 3.88123 22.1228 4.13904C22.2085 4.39684 22.2225 4.67306 22.1633 4.93821L22.1624 4.94241L22.1624 4.94241L18.6374 20.3362L18.6373 20.3366C18.5791 20.5901 18.4559 20.8242 18.2799 21.0158C18.1039 21.2074 17.881 21.3499 17.6333 21.4293C17.3855 21.5088 17.1214 21.5224 16.8668 21.4689C16.6127 21.4154 16.3768 21.297 16.1822 21.1251C16.1818 21.1247 16.1814 21.1244 16.181 21.1241L7.90547 13.8427L3.10557 12.8791L3.10248 12.8784C1.66077 12.5827 1.43922 10.5633 2.84828 10.0111L3.12193 10.7094L2.84777 10.0113L2.84828 10.0111L20.154 3.21441L20.1571 3.21321ZM3.4003 11.4058C3.40043 11.4067 3.40059 11.4076 3.40076 11.4083C3.40147 11.4085 3.40225 11.4087 3.40308 11.4089C3.40335 11.4089 3.40362 11.409 3.4039 11.409L8.39768 12.4115C8.52672 12.4374 8.64668 12.4969 8.74549 12.5838L17.1736 19.9994L17.1753 20.0009L20.6993 4.61179L3.4003 11.4058ZM3.39316 11.406C3.39316 11.406 3.39317 11.406 3.39319 11.406L3.39316 11.406Z" fill="#262626"/>
<path fill-rule="evenodd" clip-rule="evenodd" d="M20.1571 3.21321C20.4104 3.11501 20.6856 3.08745 20.9533 3.13345C21.221 3.17945 21.4712 3.2973 21.6772 3.4744C21.8832 3.65151 22.0372 3.88123 22.1228 4.13904C22.2085 4.39684 22.2225 4.67306 22.1633 4.93821L22.1624 4.94241L22.1624 4.94241L18.6374 20.3362L18.6373 20.3366C18.5791 20.5901 18.4559 20.8242 18.2799 21.0158C18.1039 21.2074 17.881 21.3499 17.6333 21.4293C17.3855 21.5088 17.1214 21.5224 16.8668 21.4689C16.6127 21.4154 16.3768 21.297 16.1822 21.1251C16.1818 21.1247 16.1814 21.1244 16.181 21.1241L7.90547 13.8427L3.10557 12.8791L3.10248 12.8784C1.66077 12.5827 1.43922 10.5633 2.84828 10.0111L3.12193 10.7094L2.84777 10.0113L2.84828 10.0111L20.154 3.21441L20.1571 3.21321ZM3.4003 11.4058C3.40043 11.4067 3.40059 11.4076 3.40076 11.4083C3.40147 11.4085 3.40225 11.4087 3.40308 11.4089C3.40335 11.4089 3.40362 11.409 3.4039 11.409L8.39768 12.4115C8.52672 12.4374 8.64668 12.4969 8.74549 12.5838L17.1736 19.9994L17.1753 20.0009L20.6993 4.61179L3.4003 11.4058ZM3.39316 11.406C3.39316 11.406 3.39317 11.406 3.39319 11.406L3.39316 11.406Z" fill="white" fill-opacity="0.1"/>
<path fill-rule="evenodd" clip-rule="evenodd" d="M21.6174 3.4921C21.86 3.82789 21.7844 4.29671 21.4486 4.53924L8.68919 13.7549C8.3534 13.9974 7.88458 13.9218 7.64206 13.586C7.39953 13.2502 7.47513 12.7814 7.81092 12.5389L20.5703 3.32324C20.9061 3.08071 21.3749 3.15632 21.6174 3.4921Z" fill="#262626"/>
<path fill-rule="evenodd" clip-rule="evenodd" d="M21.6174 3.4921C21.86 3.82789 21.7844 4.29671 21.4486 4.53924L8.68919 13.7549C8.3534 13.9974 7.88458 13.9218 7.64206 13.586C7.39953 13.2502 7.47513 12.7814 7.81092 12.5389L20.5703 3.32324C20.9061 3.08071 21.3749 3.15632 21.6174 3.4921Z" fill="white" fill-opacity="0.1"/>
<path fill-rule="evenodd" clip-rule="evenodd" d="M8.25 12.3969C8.66421 12.3969 9 12.7327 9 13.1469L9 19.2488L9.00403 19.2447L11.929 16.3197C12.2219 16.0268 12.6968 16.0268 12.9897 16.3197C13.2826 16.6126 13.2826 17.0874 12.9897 17.3803L10.0664 20.3037C9.85803 20.5143 9.59195 20.6585 9.30169 20.7181C9.01034 20.7779 8.70777 20.7498 8.43244 20.6372C8.15712 20.5247 7.92147 20.3328 7.75544 20.0861C7.58941 19.8393 7.5005 19.5487 7.5 19.2513L7.5 13.1469C7.5 12.7327 7.83579 12.3969 8.25 12.3969Z" fill="#262626"/>
<path fill-rule="evenodd" clip-rule="evenodd" d="M8.25 12.3969C8.66421 12.3969 9 12.7327 9 13.1469L9 19.2488L9.00403 19.2447L11.929 16.3197C12.2219 16.0268 12.6968 16.0268 12.9897 16.3197C13.2826 16.6126 13.2826 17.0874 12.9897 17.3803L10.0664 20.3037C9.85803 20.5143 9.59195 20.6585 9.30169 20.7181C9.01034 20.7779 8.70777 20.7498 8.43244 20.6372C8.15712 20.5247 7.92147 20.3328 7.75544 20.0861C7.58941 19.8393 7.5005 19.5487 7.5 19.2513L7.5 13.1469C7.5 12.7327 7.83579 12.3969 8.25 12.3969Z" fill="white" fill-opacity="0.1"/>
</svg>
